<mxfile host="www.draw.io" modified="2020-02-21T04:31:07.390Z" agent="Mozilla/5.0 (Macintosh; Intel Mac OS X 10_15_1) AppleWebKit/605.1.15 (KHTML, like Gecko) Version/13.0.3 Safari/605.1.15" etag="NaXhnEryw3k6Nat8tVCD" version="12.7.2" type="github">
  <diagram id="C5RBs43oDa-KdzZeNtuy" name="Page-1">
    <mxGraphModel dx="1694" dy="1019" grid="1" gridSize="10" guides="1" tooltips="1" connect="1" arrows="1" fold="1" page="1" pageScale="1" pageWidth="1700" pageHeight="1100" math="0" shadow="0">
      <root>
        <mxCell id="WIyWlLk6GJQsqaUBKTNV-0" />
        <mxCell id="WIyWlLk6GJQsqaUBKTNV-1" parent="WIyWlLk6GJQsqaUBKTNV-0" />
        <mxCell id="RfBFM13m3u1WeMIUBJcM-0" value="Item" style="swimlane;fontStyle=1;align=center;verticalAlign=top;childLayout=stackLayout;horizontal=1;startSize=26;horizontalStack=0;resizeParent=1;resizeParentMax=0;resizeLast=0;collapsible=1;marginBottom=0;" parent="WIyWlLk6GJQsqaUBKTNV-1" vertex="1">
          <mxGeometry x="40" y="390" width="160" height="194" as="geometry" />
        </mxCell>
        <mxCell id="RfBFM13m3u1WeMIUBJcM-1" value="- title: String&#xa;- description: String&#xa;- location: Int&#xa;- rate: double&#xa;- start_date: String&#xa;- end_date: String&#xa;- owner_ID: Int&#xa;- ID: Int&#xa;- images: String[]&#xa;&#xa;&#xa;&#xa;" style="text;strokeColor=none;fillColor=none;align=left;verticalAlign=top;spacingLeft=4;spacingRight=4;overflow=hidden;rotatable=0;points=[[0,0.5],[1,0.5]];portConstraint=eastwest;" parent="RfBFM13m3u1WeMIUBJcM-0" vertex="1">
          <mxGeometry y="26" width="160" height="134" as="geometry" />
        </mxCell>
        <mxCell id="RfBFM13m3u1WeMIUBJcM-2" value="" style="line;strokeWidth=1;fillColor=none;align=left;verticalAlign=middle;spacingTop=-1;spacingLeft=3;spacingRight=3;rotatable=0;labelPosition=right;points=[];portConstraint=eastwest;" parent="RfBFM13m3u1WeMIUBJcM-0" vertex="1">
          <mxGeometry y="160" width="160" height="8" as="geometry" />
        </mxCell>
        <mxCell id="RfBFM13m3u1WeMIUBJcM-3" value="+ loadInfo()" style="text;strokeColor=none;fillColor=none;align=left;verticalAlign=top;spacingLeft=4;spacingRight=4;overflow=hidden;rotatable=0;points=[[0,0.5],[1,0.5]];portConstraint=eastwest;" parent="RfBFM13m3u1WeMIUBJcM-0" vertex="1">
          <mxGeometry y="168" width="160" height="26" as="geometry" />
        </mxCell>
        <mxCell id="RfBFM13m3u1WeMIUBJcM-8" value="User" style="swimlane;fontStyle=1;align=center;verticalAlign=top;childLayout=stackLayout;horizontal=1;startSize=26;horizontalStack=0;resizeParent=1;resizeParentMax=0;resizeLast=0;collapsible=1;marginBottom=0;" parent="WIyWlLk6GJQsqaUBKTNV-1" vertex="1">
          <mxGeometry x="920" y="540" width="160" height="200" as="geometry" />
        </mxCell>
        <mxCell id="RfBFM13m3u1WeMIUBJcM-9" value="- username: String&#xa;- userID: Int&#xa;- name: String&#xa;- phoneNumber: String&#xa;- address: String&#xa;- creditCardNum: String&#xa;- cvv: Int&#xa;- expiration: String" style="text;strokeColor=none;fillColor=none;align=left;verticalAlign=top;spacingLeft=4;spacingRight=4;overflow=hidden;rotatable=0;points=[[0,0.5],[1,0.5]];portConstraint=eastwest;" parent="RfBFM13m3u1WeMIUBJcM-8" vertex="1">
          <mxGeometry y="26" width="160" height="124" as="geometry" />
        </mxCell>
        <mxCell id="RfBFM13m3u1WeMIUBJcM-10" value="" style="line;strokeWidth=1;fillColor=none;align=left;verticalAlign=middle;spacingTop=-1;spacingLeft=3;spacingRight=3;rotatable=0;labelPosition=right;points=[];portConstraint=eastwest;" parent="RfBFM13m3u1WeMIUBJcM-8" vertex="1">
          <mxGeometry y="150" width="160" height="8" as="geometry" />
        </mxCell>
        <mxCell id="RfBFM13m3u1WeMIUBJcM-11" value="+ getCreditCard()&#xa;+ getInfo()" style="text;strokeColor=none;fillColor=none;align=left;verticalAlign=top;spacingLeft=4;spacingRight=4;overflow=hidden;rotatable=0;points=[[0,0.5],[1,0.5]];portConstraint=eastwest;" parent="RfBFM13m3u1WeMIUBJcM-8" vertex="1">
          <mxGeometry y="158" width="160" height="42" as="geometry" />
        </mxCell>
        <mxCell id="RfBFM13m3u1WeMIUBJcM-26" value="loginUser" style="swimlane;fontStyle=1;align=center;verticalAlign=top;childLayout=stackLayout;horizontal=1;startSize=26;horizontalStack=0;resizeParent=1;resizeParentMax=0;resizeLast=0;collapsible=1;marginBottom=0;" parent="WIyWlLk6GJQsqaUBKTNV-1" vertex="1">
          <mxGeometry x="880" y="360" width="160" height="80" as="geometry" />
        </mxCell>
        <mxCell id="RfBFM13m3u1WeMIUBJcM-28" value="" style="line;strokeWidth=1;fillColor=none;align=left;verticalAlign=middle;spacingTop=-1;spacingLeft=3;spacingRight=3;rotatable=0;labelPosition=right;points=[];portConstraint=eastwest;" parent="RfBFM13m3u1WeMIUBJcM-26" vertex="1">
          <mxGeometry y="26" width="160" height="8" as="geometry" />
        </mxCell>
        <mxCell id="RfBFM13m3u1WeMIUBJcM-29" value="+ submit()&#xa;+ doLogin()" style="text;strokeColor=none;fillColor=none;align=left;verticalAlign=top;spacingLeft=4;spacingRight=4;overflow=hidden;rotatable=0;points=[[0,0.5],[1,0.5]];portConstraint=eastwest;" parent="RfBFM13m3u1WeMIUBJcM-26" vertex="1">
          <mxGeometry y="34" width="160" height="46" as="geometry" />
        </mxCell>
        <mxCell id="RfBFM13m3u1WeMIUBJcM-34" value="registerUser" style="swimlane;fontStyle=1;align=center;verticalAlign=top;childLayout=stackLayout;horizontal=1;startSize=26;horizontalStack=0;resizeParent=1;resizeParentMax=0;resizeLast=0;collapsible=1;marginBottom=0;" parent="WIyWlLk6GJQsqaUBKTNV-1" vertex="1">
          <mxGeometry x="590" y="740" width="160" height="70" as="geometry" />
        </mxCell>
        <mxCell id="RfBFM13m3u1WeMIUBJcM-36" value="" style="line;strokeWidth=1;fillColor=none;align=left;verticalAlign=middle;spacingTop=-1;spacingLeft=3;spacingRight=3;rotatable=0;labelPosition=right;points=[];portConstraint=eastwest;" parent="RfBFM13m3u1WeMIUBJcM-34" vertex="1">
          <mxGeometry y="26" width="160" height="8" as="geometry" />
        </mxCell>
        <mxCell id="RfBFM13m3u1WeMIUBJcM-37" value="+ submit()&#xa;+ doRegister()" style="text;strokeColor=none;fillColor=none;align=left;verticalAlign=top;spacingLeft=4;spacingRight=4;overflow=hidden;rotatable=0;points=[[0,0.5],[1,0.5]];portConstraint=eastwest;" parent="RfBFM13m3u1WeMIUBJcM-34" vertex="1">
          <mxGeometry y="34" width="160" height="36" as="geometry" />
        </mxCell>
        <mxCell id="RfBFM13m3u1WeMIUBJcM-42" value="verify" style="swimlane;fontStyle=1;align=center;verticalAlign=top;childLayout=stackLayout;horizontal=1;startSize=26;horizontalStack=0;resizeParent=1;resizeParentMax=0;resizeLast=0;collapsible=1;marginBottom=0;" parent="WIyWlLk6GJQsqaUBKTNV-1" vertex="1">
          <mxGeometry x="660" y="230" width="160" height="190" as="geometry" />
        </mxCell>
        <mxCell id="RfBFM13m3u1WeMIUBJcM-44" value="" style="line;strokeWidth=1;fillColor=none;align=left;verticalAlign=middle;spacingTop=-1;spacingLeft=3;spacingRight=3;rotatable=0;labelPosition=right;points=[];portConstraint=eastwest;" parent="RfBFM13m3u1WeMIUBJcM-42" vertex="1">
          <mxGeometry y="26" width="160" height="8" as="geometry" />
        </mxCell>
        <mxCell id="RfBFM13m3u1WeMIUBJcM-45" value="+ verifyName()&#xa;+ verifyEmail()&#xa;+ verifyUsername()&#xa;+ verifyPhone()&#xa;+ verifyAddress()&#xa;+ verifyState()&#xa;+ verifyZipcode()&#xa;+ cleanData()&#xa;+ cleanPhone()&#xa;+ checkRecordExists()" style="text;strokeColor=none;fillColor=none;align=left;verticalAlign=top;spacingLeft=4;spacingRight=4;overflow=hidden;rotatable=0;points=[[0,0.5],[1,0.5]];portConstraint=eastwest;" parent="RfBFM13m3u1WeMIUBJcM-42" vertex="1">
          <mxGeometry y="34" width="160" height="156" as="geometry" />
        </mxCell>
        <mxCell id="f73wdCoeStIVqAjHHJIj-0" value="updateAccount&#xa;" style="swimlane;fontStyle=1;align=center;verticalAlign=top;childLayout=stackLayout;horizontal=1;startSize=26;horizontalStack=0;resizeParent=1;resizeParentMax=0;resizeLast=0;collapsible=1;marginBottom=0;" vertex="1" parent="WIyWlLk6GJQsqaUBKTNV-1">
          <mxGeometry x="340" y="720" width="160" height="90" as="geometry" />
        </mxCell>
        <mxCell id="f73wdCoeStIVqAjHHJIj-2" value="" style="line;strokeWidth=1;fillColor=none;align=left;verticalAlign=middle;spacingTop=-1;spacingLeft=3;spacingRight=3;rotatable=0;labelPosition=right;points=[];portConstraint=eastwest;" vertex="1" parent="f73wdCoeStIVqAjHHJIj-0">
          <mxGeometry y="26" width="160" height="8" as="geometry" />
        </mxCell>
        <mxCell id="f73wdCoeStIVqAjHHJIj-3" value="+ load()&#xa;+ submit()&#xa;+ doUpdate()" style="text;strokeColor=none;fillColor=none;align=left;verticalAlign=top;spacingLeft=4;spacingRight=4;overflow=hidden;rotatable=0;points=[[0,0.5],[1,0.5]];portConstraint=eastwest;" vertex="1" parent="f73wdCoeStIVqAjHHJIj-0">
          <mxGeometry y="34" width="160" height="56" as="geometry" />
        </mxCell>
        <mxCell id="f73wdCoeStIVqAjHHJIj-8" value="updateItem" style="swimlane;fontStyle=1;align=center;verticalAlign=top;childLayout=stackLayout;horizontal=1;startSize=26;horizontalStack=0;resizeParent=1;resizeParentMax=0;resizeLast=0;collapsible=1;marginBottom=0;" vertex="1" parent="WIyWlLk6GJQsqaUBKTNV-1">
          <mxGeometry x="100" y="710" width="160" height="90" as="geometry" />
        </mxCell>
        <mxCell id="f73wdCoeStIVqAjHHJIj-10" value="" style="line;strokeWidth=1;fillColor=none;align=left;verticalAlign=middle;spacingTop=-1;spacingLeft=3;spacingRight=3;rotatable=0;labelPosition=right;points=[];portConstraint=eastwest;" vertex="1" parent="f73wdCoeStIVqAjHHJIj-8">
          <mxGeometry y="26" width="160" height="8" as="geometry" />
        </mxCell>
        <mxCell id="f73wdCoeStIVqAjHHJIj-11" value="+ load()&#xa;+ submit()&#xa;+ doUpdate()" style="text;strokeColor=none;fillColor=none;align=left;verticalAlign=top;spacingLeft=4;spacingRight=4;overflow=hidden;rotatable=0;points=[[0,0.5],[1,0.5]];portConstraint=eastwest;" vertex="1" parent="f73wdCoeStIVqAjHHJIj-8">
          <mxGeometry y="34" width="160" height="56" as="geometry" />
        </mxCell>
        <mxCell id="f73wdCoeStIVqAjHHJIj-13" value="addItem" style="swimlane;fontStyle=1;align=center;verticalAlign=top;childLayout=stackLayout;horizontal=1;startSize=26;horizontalStack=0;resizeParent=1;resizeParentMax=0;resizeLast=0;collapsible=1;marginBottom=0;" vertex="1" parent="WIyWlLk6GJQsqaUBKTNV-1">
          <mxGeometry x="150" y="60" width="160" height="80" as="geometry" />
        </mxCell>
        <mxCell id="f73wdCoeStIVqAjHHJIj-15" value="" style="line;strokeWidth=1;fillColor=none;align=left;verticalAlign=middle;spacingTop=-1;spacingLeft=3;spacingRight=3;rotatable=0;labelPosition=right;points=[];portConstraint=eastwest;" vertex="1" parent="f73wdCoeStIVqAjHHJIj-13">
          <mxGeometry y="26" width="160" height="8" as="geometry" />
        </mxCell>
        <mxCell id="f73wdCoeStIVqAjHHJIj-16" value="+ submit()&#xa;+ doAdd()&#xa;" style="text;strokeColor=none;fillColor=none;align=left;verticalAlign=top;spacingLeft=4;spacingRight=4;overflow=hidden;rotatable=0;points=[[0,0.5],[1,0.5]];portConstraint=eastwest;" vertex="1" parent="f73wdCoeStIVqAjHHJIj-13">
          <mxGeometry y="34" width="160" height="46" as="geometry" />
        </mxCell>
        <mxCell id="f73wdCoeStIVqAjHHJIj-22" value="session" style="swimlane;fontStyle=1;align=center;verticalAlign=top;childLayout=stackLayout;horizontal=1;startSize=26;horizontalStack=0;resizeParent=1;resizeParentMax=0;resizeLast=0;collapsible=1;marginBottom=0;" vertex="1" parent="WIyWlLk6GJQsqaUBKTNV-1">
          <mxGeometry x="510" y="520" width="160" height="86" as="geometry" />
        </mxCell>
        <mxCell id="f73wdCoeStIVqAjHHJIj-23" value="+ user: User" style="text;strokeColor=none;fillColor=none;align=left;verticalAlign=top;spacingLeft=4;spacingRight=4;overflow=hidden;rotatable=0;points=[[0,0.5],[1,0.5]];portConstraint=eastwest;" vertex="1" parent="f73wdCoeStIVqAjHHJIj-22">
          <mxGeometry y="26" width="160" height="26" as="geometry" />
        </mxCell>
        <mxCell id="f73wdCoeStIVqAjHHJIj-24" value="" style="line;strokeWidth=1;fillColor=none;align=left;verticalAlign=middle;spacingTop=-1;spacingLeft=3;spacingRight=3;rotatable=0;labelPosition=right;points=[];portConstraint=eastwest;" vertex="1" parent="f73wdCoeStIVqAjHHJIj-22">
          <mxGeometry y="52" width="160" height="8" as="geometry" />
        </mxCell>
        <mxCell id="f73wdCoeStIVqAjHHJIj-25" value="+ loadUser()" style="text;strokeColor=none;fillColor=none;align=left;verticalAlign=top;spacingLeft=4;spacingRight=4;overflow=hidden;rotatable=0;points=[[0,0.5],[1,0.5]];portConstraint=eastwest;" vertex="1" parent="f73wdCoeStIVqAjHHJIj-22">
          <mxGeometry y="60" width="160" height="26" as="geometry" />
        </mxCell>
        <mxCell id="f73wdCoeStIVqAjHHJIj-26" value="searchItem" style="swimlane;fontStyle=1;align=center;verticalAlign=top;childLayout=stackLayout;horizontal=1;startSize=26;horizontalStack=0;resizeParent=1;resizeParentMax=0;resizeLast=0;collapsible=1;marginBottom=0;" vertex="1" parent="WIyWlLk6GJQsqaUBKTNV-1">
          <mxGeometry x="500" y="30" width="160" height="80" as="geometry" />
        </mxCell>
        <mxCell id="f73wdCoeStIVqAjHHJIj-28" value="" style="line;strokeWidth=1;fillColor=none;align=left;verticalAlign=middle;spacingTop=-1;spacingLeft=3;spacingRight=3;rotatable=0;labelPosition=right;points=[];portConstraint=eastwest;" vertex="1" parent="f73wdCoeStIVqAjHHJIj-26">
          <mxGeometry y="26" width="160" height="8" as="geometry" />
        </mxCell>
        <mxCell id="f73wdCoeStIVqAjHHJIj-29" value="+ submit()&#xa;+ getResults()" style="text;strokeColor=none;fillColor=none;align=left;verticalAlign=top;spacingLeft=4;spacingRight=4;overflow=hidden;rotatable=0;points=[[0,0.5],[1,0.5]];portConstraint=eastwest;" vertex="1" parent="f73wdCoeStIVqAjHHJIj-26">
          <mxGeometry y="34" width="160" height="46" as="geometry" />
        </mxCell>
        <mxCell id="f73wdCoeStIVqAjHHJIj-34" value="loadHome" style="swimlane;fontStyle=1;align=center;verticalAlign=top;childLayout=stackLayout;horizontal=1;startSize=26;horizontalStack=0;resizeParent=1;resizeParentMax=0;resizeLast=0;collapsible=1;marginBottom=0;" vertex="1" parent="WIyWlLk6GJQsqaUBKTNV-1">
          <mxGeometry x="340" y="410" width="160" height="60" as="geometry" />
        </mxCell>
        <mxCell id="f73wdCoeStIVqAjHHJIj-36" value="" style="line;strokeWidth=1;fillColor=none;align=left;verticalAlign=middle;spacingTop=-1;spacingLeft=3;spacingRight=3;rotatable=0;labelPosition=right;points=[];portConstraint=eastwest;" vertex="1" parent="f73wdCoeStIVqAjHHJIj-34">
          <mxGeometry y="26" width="160" height="8" as="geometry" />
        </mxCell>
        <mxCell id="f73wdCoeStIVqAjHHJIj-37" value="+ getItems()" style="text;strokeColor=none;fillColor=none;align=left;verticalAlign=top;spacingLeft=4;spacingRight=4;overflow=hidden;rotatable=0;points=[[0,0.5],[1,0.5]];portConstraint=eastwest;" vertex="1" parent="f73wdCoeStIVqAjHHJIj-34">
          <mxGeometry y="34" width="160" height="26" as="geometry" />
        </mxCell>
        <mxCell id="f73wdCoeStIVqAjHHJIj-46" value="Use" style="endArrow=open;endSize=12;dashed=1;html=1;exitX=-0.007;exitY=0.09;exitDx=0;exitDy=0;entryX=1.011;entryY=0.356;entryDx=0;entryDy=0;exitPerimeter=0;entryPerimeter=0;" edge="1" parent="WIyWlLk6GJQsqaUBKTNV-1" source="RfBFM13m3u1WeMIUBJcM-29" target="RfBFM13m3u1WeMIUBJcM-45">
          <mxGeometry width="160" relative="1" as="geometry">
            <mxPoint x="680" y="410" as="sourcePoint" />
            <mxPoint x="840" y="410" as="targetPoint" />
          </mxGeometry>
        </mxCell>
        <mxCell id="f73wdCoeStIVqAjHHJIj-47" value="Use" style="endArrow=open;endSize=12;dashed=1;html=1;exitX=1.011;exitY=1.016;exitDx=0;exitDy=0;exitPerimeter=0;entryX=0;entryY=0.5;entryDx=0;entryDy=0;" edge="1" parent="WIyWlLk6GJQsqaUBKTNV-1" source="f73wdCoeStIVqAjHHJIj-23" target="RfBFM13m3u1WeMIUBJcM-9">
          <mxGeometry width="160" relative="1" as="geometry">
            <mxPoint x="680" y="410" as="sourcePoint" />
            <mxPoint x="840" y="410" as="targetPoint" />
          </mxGeometry>
        </mxCell>
        <mxCell id="f73wdCoeStIVqAjHHJIj-48" value="Use" style="endArrow=open;endSize=12;dashed=1;html=1;exitX=0;exitY=0.5;exitDx=0;exitDy=0;entryX=1;entryY=0.5;entryDx=0;entryDy=0;" edge="1" parent="WIyWlLk6GJQsqaUBKTNV-1" source="f73wdCoeStIVqAjHHJIj-37" target="RfBFM13m3u1WeMIUBJcM-1">
          <mxGeometry width="160" relative="1" as="geometry">
            <mxPoint x="680" y="410" as="sourcePoint" />
            <mxPoint x="840" y="410" as="targetPoint" />
          </mxGeometry>
        </mxCell>
        <mxCell id="f73wdCoeStIVqAjHHJIj-52" value="Use" style="endArrow=open;endSize=12;dashed=1;html=1;exitX=0.5;exitY=0;exitDx=0;exitDy=0;entryX=0.457;entryY=1.137;entryDx=0;entryDy=0;entryPerimeter=0;" edge="1" parent="WIyWlLk6GJQsqaUBKTNV-1" source="RfBFM13m3u1WeMIUBJcM-34" target="f73wdCoeStIVqAjHHJIj-25">
          <mxGeometry width="160" relative="1" as="geometry">
            <mxPoint x="680" y="410" as="sourcePoint" />
            <mxPoint x="840" y="410" as="targetPoint" />
          </mxGeometry>
        </mxCell>
        <mxCell id="f73wdCoeStIVqAjHHJIj-53" value="Use" style="endArrow=open;endSize=12;dashed=1;html=1;exitX=0.5;exitY=0;exitDx=0;exitDy=0;entryX=0.377;entryY=1.027;entryDx=0;entryDy=0;entryPerimeter=0;" edge="1" parent="WIyWlLk6GJQsqaUBKTNV-1" source="f73wdCoeStIVqAjHHJIj-0" target="f73wdCoeStIVqAjHHJIj-25">
          <mxGeometry width="160" relative="1" as="geometry">
            <mxPoint x="680" y="410" as="sourcePoint" />
            <mxPoint x="840" y="410" as="targetPoint" />
          </mxGeometry>
        </mxCell>
        <mxCell id="f73wdCoeStIVqAjHHJIj-54" value="Use" style="endArrow=open;endSize=12;dashed=1;html=1;exitX=0.5;exitY=0;exitDx=0;exitDy=0;" edge="1" parent="WIyWlLk6GJQsqaUBKTNV-1" source="RfBFM13m3u1WeMIUBJcM-34" target="RfBFM13m3u1WeMIUBJcM-45">
          <mxGeometry width="160" relative="1" as="geometry">
            <mxPoint x="680" y="410" as="sourcePoint" />
            <mxPoint x="840" y="410" as="targetPoint" />
          </mxGeometry>
        </mxCell>
        <mxCell id="f73wdCoeStIVqAjHHJIj-55" value="Use" style="endArrow=open;endSize=12;dashed=1;html=1;exitX=0.493;exitY=1.069;exitDx=0;exitDy=0;exitPerimeter=0;" edge="1" parent="WIyWlLk6GJQsqaUBKTNV-1" source="f73wdCoeStIVqAjHHJIj-3" target="RfBFM13m3u1WeMIUBJcM-45">
          <mxGeometry width="160" relative="1" as="geometry">
            <mxPoint x="420" y="720" as="sourcePoint" />
            <mxPoint x="840" y="410" as="targetPoint" />
            <Array as="points">
              <mxPoint x="419" y="850" />
              <mxPoint x="830" y="840" />
            </Array>
          </mxGeometry>
        </mxCell>
        <mxCell id="f73wdCoeStIVqAjHHJIj-56" value="Use" style="endArrow=open;endSize=12;dashed=1;html=1;exitX=0.707;exitY=1.115;exitDx=0;exitDy=0;exitPerimeter=0;entryX=1;entryY=0;entryDx=0;entryDy=0;" edge="1" parent="WIyWlLk6GJQsqaUBKTNV-1" source="RfBFM13m3u1WeMIUBJcM-29" target="f73wdCoeStIVqAjHHJIj-22">
          <mxGeometry width="160" relative="1" as="geometry">
            <mxPoint x="350" y="560" as="sourcePoint" />
            <mxPoint x="510" y="560" as="targetPoint" />
          </mxGeometry>
        </mxCell>
        <mxCell id="f73wdCoeStIVqAjHHJIj-57" value="Use" style="endArrow=open;endSize=12;dashed=1;html=1;exitX=0.5;exitY=0;exitDx=0;exitDy=0;entryX=0.011;entryY=1.236;entryDx=0;entryDy=0;entryPerimeter=0;" edge="1" parent="WIyWlLk6GJQsqaUBKTNV-1" source="f73wdCoeStIVqAjHHJIj-8" target="f73wdCoeStIVqAjHHJIj-23">
          <mxGeometry width="160" relative="1" as="geometry">
            <mxPoint x="680" y="410" as="sourcePoint" />
            <mxPoint x="840" y="410" as="targetPoint" />
          </mxGeometry>
        </mxCell>
        <mxCell id="f73wdCoeStIVqAjHHJIj-58" value="Use" style="endArrow=open;endSize=12;dashed=1;html=1;exitX=0.448;exitY=1.022;exitDx=0;exitDy=0;exitPerimeter=0;entryX=0.189;entryY=-0.022;entryDx=0;entryDy=0;entryPerimeter=0;" edge="1" parent="WIyWlLk6GJQsqaUBKTNV-1" source="f73wdCoeStIVqAjHHJIj-16" target="f73wdCoeStIVqAjHHJIj-22">
          <mxGeometry width="160" relative="1" as="geometry">
            <mxPoint x="680" y="410" as="sourcePoint" />
            <mxPoint x="840" y="410" as="targetPoint" />
            <Array as="points">
              <mxPoint x="520" y="340" />
            </Array>
          </mxGeometry>
        </mxCell>
        <mxCell id="f73wdCoeStIVqAjHHJIj-59" value="Use" style="endArrow=open;endSize=12;dashed=1;html=1;exitX=0.502;exitY=1.115;exitDx=0;exitDy=0;exitPerimeter=0;entryX=0.6;entryY=-0.005;entryDx=0;entryDy=0;entryPerimeter=0;" edge="1" parent="WIyWlLk6GJQsqaUBKTNV-1" source="f73wdCoeStIVqAjHHJIj-29" target="f73wdCoeStIVqAjHHJIj-22">
          <mxGeometry width="160" relative="1" as="geometry">
            <mxPoint x="680" y="410" as="sourcePoint" />
            <mxPoint x="580" y="520" as="targetPoint" />
          </mxGeometry>
        </mxCell>
        <mxCell id="f73wdCoeStIVqAjHHJIj-60" value="Use" style="endArrow=open;endSize=12;dashed=1;html=1;exitX=0.002;exitY=1.022;exitDx=0;exitDy=0;exitPerimeter=0;" edge="1" parent="WIyWlLk6GJQsqaUBKTNV-1" source="f73wdCoeStIVqAjHHJIj-29" target="RfBFM13m3u1WeMIUBJcM-0">
          <mxGeometry width="160" relative="1" as="geometry">
            <mxPoint x="680" y="410" as="sourcePoint" />
            <mxPoint x="840" y="410" as="targetPoint" />
          </mxGeometry>
        </mxCell>
        <mxCell id="f73wdCoeStIVqAjHHJIj-61" value="Use" style="endArrow=open;endSize=12;dashed=1;html=1;entryX=0.109;entryY=-0.002;entryDx=0;entryDy=0;entryPerimeter=0;" edge="1" parent="WIyWlLk6GJQsqaUBKTNV-1" source="f73wdCoeStIVqAjHHJIj-29" target="RfBFM13m3u1WeMIUBJcM-42">
          <mxGeometry width="160" relative="1" as="geometry">
            <mxPoint x="680" y="410" as="sourcePoint" />
            <mxPoint x="840" y="410" as="targetPoint" />
          </mxGeometry>
        </mxCell>
        <mxCell id="f73wdCoeStIVqAjHHJIj-62" value="Use" style="endArrow=open;endSize=12;dashed=1;html=1;exitX=1;exitY=0.5;exitDx=0;exitDy=0;entryX=-0.034;entryY=0.054;entryDx=0;entryDy=0;entryPerimeter=0;" edge="1" parent="WIyWlLk6GJQsqaUBKTNV-1" source="f73wdCoeStIVqAjHHJIj-16" target="RfBFM13m3u1WeMIUBJcM-45">
          <mxGeometry width="160" relative="1" as="geometry">
            <mxPoint x="680" y="410" as="sourcePoint" />
            <mxPoint x="840" y="410" as="targetPoint" />
          </mxGeometry>
        </mxCell>
        <mxCell id="f73wdCoeStIVqAjHHJIj-63" value="Use" style="endArrow=open;endSize=12;dashed=1;html=1;exitX=0.5;exitY=0;exitDx=0;exitDy=0;entryX=-0.016;entryY=0.805;entryDx=0;entryDy=0;entryPerimeter=0;" edge="1" parent="WIyWlLk6GJQsqaUBKTNV-1" source="f73wdCoeStIVqAjHHJIj-8" target="RfBFM13m3u1WeMIUBJcM-45">
          <mxGeometry width="160" relative="1" as="geometry">
            <mxPoint x="680" y="410" as="sourcePoint" />
            <mxPoint x="840" y="410" as="targetPoint" />
          </mxGeometry>
        </mxCell>
        <mxCell id="f73wdCoeStIVqAjHHJIj-65" value="Use" style="endArrow=open;endSize=12;dashed=1;html=1;exitX=0.225;exitY=1.022;exitDx=0;exitDy=0;exitPerimeter=0;entryX=0.75;entryY=0;entryDx=0;entryDy=0;" edge="1" parent="WIyWlLk6GJQsqaUBKTNV-1" source="f73wdCoeStIVqAjHHJIj-16" target="RfBFM13m3u1WeMIUBJcM-0">
          <mxGeometry width="160" relative="1" as="geometry">
            <mxPoint x="680" y="410" as="sourcePoint" />
            <mxPoint x="840" y="410" as="targetPoint" />
          </mxGeometry>
        </mxCell>
        <mxCell id="f73wdCoeStIVqAjHHJIj-66" value="Use" style="endArrow=open;endSize=12;dashed=1;html=1;exitX=0.314;exitY=-0.005;exitDx=0;exitDy=0;exitPerimeter=0;" edge="1" parent="WIyWlLk6GJQsqaUBKTNV-1" source="f73wdCoeStIVqAjHHJIj-8" target="RfBFM13m3u1WeMIUBJcM-3">
          <mxGeometry width="160" relative="1" as="geometry">
            <mxPoint x="680" y="410" as="sourcePoint" />
            <mxPoint x="840" y="410" as="targetPoint" />
          </mxGeometry>
        </mxCell>
      </root>
    </mxGraphModel>
  </diagram>
</mxfile>
